<svg width="110" height="110" viewBox="0 0 110 110" fill="none" xmlns="http://www.w3.org/2000/svg">
<g opacity="0.05" clip-path="url(#clip0_3797_26497)">
<rect width="13.2854" height="283.467" transform="matrix(-0.963374 -0.26816 0.817894 -0.575369 106.02 145.781)" fill="white" fill-opacity="0.65"/>
<rect width="13.2854" height="283.467" transform="matrix(-0.963374 -0.26816 0.817894 -0.575369 56.0771 145.781)" fill="white" fill-opacity="0.65"/>
<rect width="13.2854" height="283.467" transform="matrix(-0.963374 -0.26816 0.817894 -0.575369 6.13354 145.781)" fill="white" fill-opacity="0.65"/>
<rect width="13.2854" height="283.467" transform="matrix(-0.963374 -0.26816 0.817894 -0.575369 -43.8093 145.781)" fill="white" fill-opacity="0.65"/>
<rect width="13.2854" height="283.467" transform="matrix(-0.963374 -0.26816 0.817894 -0.575369 -93.7524 145.781)" fill="white" fill-opacity="0.65"/>
<rect width="13.2854" height="283.467" transform="matrix(-0.963374 -0.26816 0.817894 -0.575369 -143.696 145.781)" fill="white" fill-opacity="0.65"/>
<rect width="13.2854" height="283.467" transform="matrix(-0.963374 -0.26816 0.817894 -0.575369 -193.639 145.781)" fill="white" fill-opacity="0.65"/>
</g>
<defs>
<clipPath id="clip0_3797_26497">
<rect width="110" height="110" fill="white" transform="translate(110 110) rotate(-180)"/>
</clipPath>
</defs>
</svg>
