<svg width="13" height="13" viewBox="0 0 13 13" fill="none" xmlns="http://www.w3.org/2000/svg">
<path d="M0 10.5V13H2.5L9.87333 5.62671L7.37333 3.12671L0 10.5ZM11.8067 3.69338C11.8685 3.6317 11.9175 3.55844 11.951 3.47779C11.9844 3.39714 12.0016 3.31069 12.0016 3.22338C12.0016 3.13606 11.9844 3.04961 11.951 2.96896C11.9175 2.88831 11.8685 2.81505 11.8067 2.75338L10.2467 1.19338C10.185 1.13157 10.1117 1.08254 10.0311 1.04909C9.95043 1.01563 9.86398 0.998413 9.77667 0.998413C9.68935 0.998413 9.6029 1.01563 9.52225 1.04909C9.4416 1.08254 9.36834 1.13157 9.30667 1.19338L8.08667 2.41338L10.5867 4.91338L11.8067 3.69338Z" fill="white" fill-opacity="0.25"/>
</svg>
