<svg width="12" height="12" viewBox="0 0 12 12" fill="none" xmlns="http://www.w3.org/2000/svg">
<path d="M11.3014 2.0982C11.3947 2.00784 11.4692 1.89975 11.5204 1.78022C11.5717 1.66069 11.5987 1.53211 11.5999 1.402C11.6011 1.27189 11.5764 1.14284 11.5273 1.02238C11.4783 0.90193 11.4058 0.792485 11.3141 0.700433C11.2224 0.608381 11.1134 0.535567 10.9934 0.486238C10.8733 0.436909 10.7447 0.412054 10.615 0.413123C10.4853 0.414192 10.3571 0.441164 10.2379 0.492464C10.1187 0.543764 10.0109 0.618366 9.92071 0.711916L6.00543 4.63819L2.09146 0.711916C2.00202 0.615638 1.89418 0.538417 1.77435 0.484857C1.65452 0.431298 1.52517 0.402498 1.394 0.400177C1.26284 0.397855 1.13255 0.42206 1.01091 0.471345C0.889277 0.520631 0.778782 0.593988 0.68602 0.687041C0.593259 0.780094 0.520131 0.890935 0.471 1.01295C0.421869 1.13497 0.39774 1.26567 0.400054 1.39725C0.402369 1.52882 0.431078 1.65858 0.48447 1.77879C0.537861 1.89899 0.614841 2.00718 0.710817 2.09689L4.62219 6.02447L0.708212 9.95074C0.535659 10.1365 0.441719 10.3822 0.446184 10.6361C0.450649 10.8899 0.553171 11.1322 0.73215 11.3117C0.911129 11.4912 1.15259 11.5941 1.40567 11.5986C1.65874 11.603 1.90367 11.5088 2.08885 11.3357L6.00543 7.40944L9.91941 11.337C10.1046 11.5101 10.3495 11.6044 10.6026 11.5999C10.8557 11.5954 11.0971 11.4926 11.2761 11.313C11.4551 11.1335 11.5576 10.8912 11.5621 10.6374C11.5665 10.3835 11.4726 10.1378 11.3 9.95205L7.38868 6.02447L11.3014 2.0982Z" fill="white"/>
</svg>
