<svg width="87" height="74" viewBox="0 0 87 74" fill="none" xmlns="http://www.w3.org/2000/svg">
<rect x="5.5" y="0.5" width="69" height="69" stroke="url(#paint0_linear_2490_16708)" stroke-opacity="0.65"/>
<rect x="13" y="10" width="74" height="50" fill="url(#paint1_linear_2490_16708)" fill-opacity="0.1"/>
<path d="M42.5317 36.995L44.165 34.1716C44.27 33.9966 44.2233 33.775 44.0716 33.6466L42.345 32.2933C42.38 32.0366 42.4033 31.7683 42.4033 31.5C42.4033 31.2316 42.38 30.9633 42.345 30.695L44.0716 29.3416C44.2233 29.2133 44.27 28.9916 44.165 28.8166L42.5317 25.9933C42.4267 25.8183 42.2167 25.7483 42.03 25.8183L40 26.635C39.58 26.3083 39.125 26.04 38.6233 25.83L38.32 23.6716C38.3004 23.5773 38.2493 23.4924 38.1751 23.4309C38.1009 23.3694 38.008 23.335 37.9117 23.3333H34.645C34.4467 23.3333 34.2716 23.485 34.2366 23.6833L33.9333 25.8416C33.4433 26.0516 32.9766 26.32 32.5567 26.6466L30.5267 25.83C30.34 25.76 30.13 25.83 30.025 26.005L28.3917 28.8283C28.2867 29.0033 28.3333 29.225 28.485 29.3533L30.2117 30.7066C30.1767 30.9633 30.1533 31.2316 30.1533 31.5C30.1533 31.7683 30.1767 32.0366 30.2117 32.305L28.485 33.6583C28.3333 33.7866 28.2867 34.0083 28.3917 34.1833L30.025 37.0066C30.13 37.1816 30.34 37.2516 30.5267 37.1816L32.5567 36.365C32.9766 36.6916 33.4317 36.96 33.9333 37.17L34.2366 39.3283C34.2716 39.515 34.4467 39.6666 34.645 39.6666H37.9117C38.11 39.6666 38.285 39.515 38.32 39.3166L38.6233 37.1583C39.1133 36.9483 39.58 36.68 40 36.3533L42.03 37.17C42.2167 37.24 42.4267 37.17 42.5317 36.995ZM36.2783 33.8333C34.995 33.8333 33.945 32.7833 33.945 31.5C33.945 30.2166 34.995 29.1666 36.2783 29.1666C37.5617 29.1666 38.6117 30.2166 38.6117 31.5C38.6117 32.7833 37.5617 33.8333 36.2783 33.8333ZM51.5733 42.7816L50.4533 41.9183C50.4766 41.755 50.5 41.58 50.5 41.405C50.5 41.23 50.4883 41.055 50.4533 40.8916L51.5616 40.0283C51.655 39.9466 51.69 39.8066 51.62 39.69L50.57 37.8816C50.5117 37.765 50.3717 37.73 50.2433 37.765L48.9483 38.29C48.68 38.08 48.3883 37.905 48.0616 37.7766L47.8633 36.4C47.8587 36.3376 47.8311 36.2792 47.7858 36.2361C47.7405 36.193 47.6808 36.1682 47.6183 36.1666H45.53C45.4016 36.1666 45.285 36.26 45.2733 36.3883L45.075 37.765C44.76 37.905 44.4566 38.0683 44.1883 38.2783L42.8933 37.7533C42.8339 37.731 42.7684 37.7304 42.7086 37.7518C42.6488 37.7731 42.5985 37.815 42.5667 37.87L41.5167 39.6783C41.4583 39.795 41.47 39.935 41.575 40.0166L42.6833 40.88C42.6352 41.2205 42.6352 41.5661 42.6833 41.9066L41.575 42.77C41.4817 42.8516 41.4467 42.9916 41.5167 43.1083L42.5667 44.9166C42.625 45.0333 42.765 45.0683 42.8933 45.0333L44.1883 44.5083C44.4566 44.7183 44.7483 44.8933 45.075 45.0216L45.2733 46.3983C45.2966 46.5266 45.4016 46.62 45.53 46.62H47.6183C47.7467 46.62 47.8633 46.5266 47.875 46.3983L48.0733 45.0216C48.3883 44.8816 48.6917 44.7183 48.9483 44.5083L50.255 45.0333C50.3717 45.08 50.5117 45.0333 50.5816 44.9166L51.6316 43.1083C51.7016 43.0033 51.6667 42.8633 51.5733 42.7816ZM46.5683 42.9683C46.1504 42.9682 45.7498 42.802 45.4544 42.5064C45.159 42.2108 44.9932 41.81 44.9933 41.3921C44.9935 40.9743 45.1596 40.5736 45.4552 40.2782C45.7508 39.9828 46.1516 39.817 46.5695 39.8171C46.9874 39.8173 47.3881 39.9834 47.6834 40.279C47.9788 40.5746 48.1446 40.9754 48.1445 41.3933C48.1443 41.8112 47.9782 42.2119 47.6826 42.5072C47.387 42.8026 46.9862 42.9685 46.5683 42.9683Z" fill="white" fill-opacity="0.85"/>
<rect y="66" width="8" height="8" fill="white" fill-opacity="0.65"/>
<rect y="14" width="1" height="40" fill="white" fill-opacity="0.35"/>
<defs>
<linearGradient id="paint0_linear_2490_16708" x1="92.9375" y1="47.25" x2="51.2857" y2="93.6891" gradientUnits="userSpaceOnUse">
<stop stop-color="white"/>
<stop offset="1" stop-color="white" stop-opacity="0"/>
</linearGradient>
<linearGradient id="paint1_linear_2490_16708" x1="17.662" y1="12.5325" x2="27.8474" y2="64.8401" gradientUnits="userSpaceOnUse">
<stop stop-color="white"/>
<stop offset="1" stop-color="white" stop-opacity="0"/>
</linearGradient>
</defs>
</svg>
