<svg width="24" height="24" viewBox="0 0 24 24" fill="none" xmlns="http://www.w3.org/2000/svg">
<path d="M14.5317 13.9952L16.165 11.1718C16.27 10.9968 16.2233 10.7752 16.0717 10.6468L14.345 9.2935C14.38 9.03683 14.4033 8.7685 14.4033 8.50016C14.4033 8.23183 14.38 7.9635 14.345 7.69516L16.0717 6.34183C16.2233 6.2135 16.27 5.99183 16.165 5.81683L14.5317 2.9935C14.4267 2.8185 14.2167 2.7485 14.03 2.8185L12 3.63516C11.58 3.3085 11.125 3.04016 10.6233 2.83016L10.32 0.671829C10.3004 0.577472 10.2494 0.492578 10.1751 0.431094C10.1009 0.369611 10.008 0.335193 9.91168 0.333496H6.64501C6.44668 0.333496 6.27168 0.485163 6.23668 0.683496L5.93335 2.84183C5.44335 3.05183 4.97668 3.32016 4.55668 3.64683L2.52668 2.83016C2.34001 2.76016 2.13001 2.83016 2.02501 3.00516L0.391681 5.8285C0.286681 6.0035 0.333348 6.22516 0.485014 6.3535L2.21168 7.70683C2.17668 7.9635 2.15335 8.23183 2.15335 8.50016C2.15335 8.7685 2.17668 9.03683 2.21168 9.30516L0.485014 10.6585C0.333348 10.7868 0.286681 11.0085 0.391681 11.1835L2.02501 14.0068C2.13001 14.1818 2.34001 14.2518 2.52668 14.1818L4.55668 13.3652C4.97668 13.6918 5.43168 13.9602 5.93335 14.1702L6.23668 16.3285C6.27168 16.5152 6.44668 16.6668 6.64501 16.6668H9.91168C10.11 16.6668 10.285 16.5152 10.32 16.3168L10.6233 14.1585C11.1133 13.9485 11.58 13.6802 12 13.3535L14.03 14.1702C14.2167 14.2402 14.4267 14.1702 14.5317 13.9952ZM8.27835 10.8335C6.99501 10.8335 5.94501 9.7835 5.94501 8.50016C5.94501 7.21683 6.99501 6.16683 8.27835 6.16683C9.56168 6.16683 10.6117 7.21683 10.6117 8.50016C10.6117 9.7835 9.56168 10.8335 8.27835 10.8335ZM23.5733 19.7818L22.4533 18.9185C22.4767 18.7552 22.5 18.5802 22.5 18.4052C22.5 18.2302 22.4883 18.0552 22.4533 17.8918L23.5617 17.0285C23.655 16.9468 23.69 16.8068 23.62 16.6902L22.57 14.8818C22.5117 14.7652 22.3717 14.7302 22.2433 14.7652L20.9483 15.2902C20.68 15.0802 20.3883 14.9052 20.0617 14.7768L19.8633 13.4002C19.8587 13.3378 19.8311 13.2794 19.7858 13.2363C19.7405 13.1931 19.6809 13.1684 19.6183 13.1668H17.53C17.4017 13.1668 17.285 13.2602 17.2733 13.3885L17.075 14.7652C16.76 14.9052 16.4567 15.0685 16.1883 15.2785L14.8933 14.7535C14.8339 14.7311 14.7684 14.7306 14.7086 14.7519C14.6488 14.7733 14.5985 14.8152 14.5667 14.8702L13.5167 16.6785C13.4583 16.7952 13.47 16.9352 13.575 17.0168L14.6833 17.8802C14.6352 18.2207 14.6352 18.5663 14.6833 18.9068L13.575 19.7702C13.4817 19.8518 13.4467 19.9918 13.5167 20.1085L14.5667 21.9168C14.625 22.0335 14.765 22.0685 14.8933 22.0335L16.1883 21.5085C16.4567 21.7185 16.7483 21.8935 17.075 22.0218L17.2733 23.3985C17.2967 23.5268 17.4017 23.6202 17.53 23.6202H19.6183C19.7467 23.6202 19.8633 23.5268 19.875 23.3985L20.0733 22.0218C20.3883 21.8818 20.6917 21.7185 20.9483 21.5085L22.255 22.0335C22.3717 22.0802 22.5117 22.0335 22.5817 21.9168L23.6317 20.1085C23.7017 20.0035 23.6667 19.8635 23.5733 19.7818ZM18.5683 19.9685C18.1505 19.9683 17.7498 19.8022 17.4544 19.5066C17.159 19.211 16.9932 18.8102 16.9933 18.3923C16.9935 17.9745 17.1596 17.5738 17.4552 17.2784C17.7508 16.983 18.1516 16.8172 18.5695 16.8173C18.9874 16.8175 19.3881 16.9836 19.6834 17.2792C19.9788 17.5748 20.1447 17.9756 20.1445 18.3935C20.1444 18.8114 19.9782 19.2121 19.6826 19.5074C19.387 19.8028 18.9862 19.9687 18.5683 19.9685Z" fill="white"/>
</svg>
