<svg width="88" height="74" viewBox="0 0 88 74" fill="none" xmlns="http://www.w3.org/2000/svg">
<rect x="6" y="0.500488" width="69" height="69" stroke="url(#paint0_linear_2490_18399)" stroke-opacity="0.65"/>
<rect x="13.5" y="10.0005" width="74" height="50" fill="url(#paint1_linear_2490_18399)"/>
<path d="M43.1316 36.9957L44.765 34.1723C44.87 33.9973 44.8233 33.7757 44.6716 33.6473L42.945 32.294C42.98 32.0373 43.0033 31.769 43.0033 31.5007C43.0033 31.2323 42.98 30.964 42.945 30.6957L44.6716 29.3423C44.8233 29.214 44.87 28.9923 44.765 28.8173L43.1316 25.994C43.0266 25.819 42.8166 25.749 42.63 25.819L40.6 26.6357C40.18 26.309 39.725 26.0407 39.2233 25.8307L38.92 23.6723C38.9004 23.578 38.8493 23.4931 38.7751 23.4316C38.7009 23.3701 38.608 23.3357 38.5116 23.334H35.245C35.0466 23.334 34.8716 23.4857 34.8366 23.684L34.5333 25.8423C34.0433 26.0523 33.5766 26.3207 33.1566 26.6473L31.1266 25.8307C30.94 25.7607 30.73 25.8307 30.625 26.0057L28.9916 28.829C28.8866 29.004 28.9333 29.2257 29.085 29.354L30.8116 30.7073C30.7766 30.964 30.7533 31.2323 30.7533 31.5007C30.7533 31.769 30.7766 32.0373 30.8116 32.3057L29.085 33.659C28.9333 33.7873 28.8866 34.009 28.9916 34.184L30.625 37.0073C30.73 37.1823 30.94 37.2523 31.1266 37.1823L33.1566 36.3657C33.5766 36.6923 34.0316 36.9607 34.5333 37.1707L34.8366 39.329C34.8716 39.5156 35.0466 39.6673 35.245 39.6673H38.5116C38.71 39.6673 38.885 39.5156 38.92 39.3173L39.2233 37.159C39.7133 36.949 40.18 36.6807 40.6 36.354L42.63 37.1707C42.8166 37.2407 43.0266 37.1707 43.1316 36.9957ZM36.8783 33.834C35.595 33.834 34.545 32.784 34.545 31.5007C34.545 30.2173 35.595 29.1673 36.8783 29.1673C38.1616 29.1673 39.2116 30.2173 39.2116 31.5007C39.2116 32.784 38.1616 33.834 36.8783 33.834ZM52.1733 42.7823L51.0533 41.919C51.0766 41.7557 51.1 41.5807 51.1 41.4057C51.1 41.2306 51.0883 41.0556 51.0533 40.8923L52.1616 40.029C52.255 39.9473 52.29 39.8073 52.22 39.6907L51.17 37.8823C51.1116 37.7657 50.9716 37.7306 50.8433 37.7657L49.5483 38.2907C49.28 38.0807 48.9883 37.9057 48.6616 37.7773L48.4633 36.4007C48.4587 36.3383 48.431 36.2799 48.3858 36.2368C48.3405 36.1936 48.2808 36.1689 48.2183 36.1673H46.13C46.0016 36.1673 45.885 36.2606 45.8733 36.389L45.675 37.7657C45.36 37.9057 45.0566 38.069 44.7883 38.279L43.4933 37.754C43.4338 37.7316 43.3684 37.7311 43.3086 37.7524C43.2488 37.7738 43.1985 37.8157 43.1666 37.8707L42.1166 39.679C42.0583 39.7957 42.07 39.9356 42.175 40.0173L43.2833 40.8807C43.2352 41.2212 43.2352 41.5668 43.2833 41.9073L42.175 42.7707C42.0816 42.8523 42.0466 42.9923 42.1166 43.109L43.1666 44.9173C43.225 45.034 43.365 45.069 43.4933 45.034L44.7883 44.509C45.0566 44.719 45.3483 44.894 45.675 45.0223L45.8733 46.399C45.8966 46.5273 46.0016 46.6206 46.13 46.6206H48.2183C48.3466 46.6206 48.4633 46.5273 48.475 46.399L48.6733 45.0223C48.9883 44.8823 49.2916 44.719 49.5483 44.509L50.855 45.034C50.9716 45.0807 51.1116 45.034 51.1816 44.9173L52.2316 43.109C52.3016 43.004 52.2666 42.864 52.1733 42.7823ZM47.1683 42.969C46.7504 42.9688 46.3497 42.8027 46.0544 42.5071C45.759 42.2115 45.5931 41.8107 45.5933 41.3928C45.5934 40.9749 45.7596 40.5743 46.0552 40.2789C46.3508 39.9835 46.7516 39.8177 47.1695 39.8178C47.5873 39.818 47.988 39.9841 48.2834 40.2797C48.5788 40.5753 48.7446 40.9761 48.7445 41.394C48.7443 41.8119 48.5782 42.2125 48.2826 42.5079C47.987 42.8033 47.5862 42.9691 47.1683 42.969Z" fill="black"/>
<rect x="0.5" y="66.0005" width="8" height="8" fill="white" fill-opacity="0.65"/>
<rect x="0.5" y="14.0005" width="1" height="40" fill="white" fill-opacity="0.35"/>
<defs>
<linearGradient id="paint0_linear_2490_18399" x1="93.4375" y1="47.2505" x2="51.7857" y2="93.6896" gradientUnits="userSpaceOnUse">
<stop stop-color="white"/>
<stop offset="1" stop-color="white" stop-opacity="0"/>
</linearGradient>
<linearGradient id="paint1_linear_2490_18399" x1="13.5" y1="35.0005" x2="100.308" y2="35.0005" gradientUnits="userSpaceOnUse">
<stop stop-color="white"/>
<stop offset="0.554897" stop-color="white"/>
<stop offset="0.675518" stop-color="white" stop-opacity="0.77"/>
<stop offset="1" stop-color="white" stop-opacity="0"/>
</linearGradient>
</defs>
</svg>
