<svg width="88" height="74" viewBox="0 0 88 74" fill="none" xmlns="http://www.w3.org/2000/svg">
<rect x="6" y="0.500488" width="69" height="69" stroke="url(#paint0_linear_2490_17338)" stroke-opacity="0.65"/>
<rect x="13.5" y="10.0005" width="74" height="50" fill="url(#paint1_linear_2490_17338)"/>
<path d="M27.6667 44.3337V41.067C27.6667 40.4059 27.837 39.7981 28.1777 39.2435C28.5184 38.689 28.9702 38.2662 29.5334 37.9754C30.7389 37.3726 31.9639 36.9203 33.2084 36.6185C34.4528 36.3167 35.7167 36.1662 37 36.167C38.2834 36.167 39.5472 36.3179 40.7917 36.6197C42.0361 36.9215 43.2611 37.3734 44.4667 37.9754C45.0306 38.267 45.4829 38.6901 45.8235 39.2447C46.1642 39.7992 46.3341 40.4067 46.3334 41.067V44.3337H27.6667ZM48.6667 44.3337V40.8337C48.6667 39.9781 48.4283 39.1564 47.9515 38.3685C47.4747 37.5806 46.7992 36.9051 45.925 36.342C46.9167 36.4587 47.85 36.6582 48.725 36.9405C49.6 37.2229 50.4167 37.5678 51.175 37.9754C51.875 38.3642 52.4097 38.7967 52.7792 39.2727C53.1486 39.7487 53.3334 40.269 53.3334 40.8337V44.3337H48.6667ZM37 35.0004C35.7167 35.0004 34.6181 34.5434 33.7042 33.6295C32.7903 32.7156 32.3334 31.617 32.3334 30.3337C32.3334 29.0504 32.7903 27.9517 33.7042 27.0379C34.6181 26.124 35.7167 25.667 37 25.667C38.2834 25.667 39.382 26.124 40.2959 27.0379C41.2097 27.9517 41.6667 29.0504 41.6667 30.3337C41.6667 31.617 41.2097 32.7156 40.2959 33.6295C39.382 34.5434 38.2834 35.0004 37 35.0004ZM48.6667 30.3337C48.6667 31.617 48.2097 32.7156 47.2959 33.6295C46.382 34.5434 45.2834 35.0004 44 35.0004C43.7861 35.0004 43.5139 34.9759 43.1834 34.9269C42.8528 34.8779 42.5806 34.8246 42.3667 34.767C42.8917 34.1448 43.2954 33.4545 43.5777 32.6962C43.86 31.9379 44.0008 31.1504 44 30.3337C44 29.517 43.8592 28.7295 43.5777 27.9712C43.2961 27.2129 42.8925 26.5226 42.3667 25.9004C42.6389 25.8031 42.9111 25.7397 43.1834 25.7102C43.4556 25.6806 43.7278 25.6662 44 25.667C45.2834 25.667 46.382 26.124 47.2959 27.0379C48.2097 27.9517 48.6667 29.0504 48.6667 30.3337Z" fill="black"/>
<rect x="0.5" y="66.0005" width="8" height="8" fill="white" fill-opacity="0.65"/>
<rect x="0.5" y="14.0005" width="1" height="40" fill="white" fill-opacity="0.35"/>
<defs>
<linearGradient id="paint0_linear_2490_17338" x1="93.4375" y1="47.2505" x2="51.7857" y2="93.6896" gradientUnits="userSpaceOnUse">
<stop stop-color="white"/>
<stop offset="1" stop-color="white" stop-opacity="0"/>
</linearGradient>
<linearGradient id="paint1_linear_2490_17338" x1="13.5" y1="35.0005" x2="100.308" y2="35.0005" gradientUnits="userSpaceOnUse">
<stop stop-color="white"/>
<stop offset="0.554897" stop-color="white"/>
<stop offset="0.675518" stop-color="white" stop-opacity="0.77"/>
<stop offset="1" stop-color="white" stop-opacity="0"/>
</linearGradient>
</defs>
</svg>
