<svg width="87" height="74" viewBox="0 0 87 74" fill="none" xmlns="http://www.w3.org/2000/svg">
<rect x="5.5" y="0.5" width="69" height="69" stroke="url(#paint0_linear_2490_16669)" stroke-opacity="0.65"/>
<rect x="13" y="10" width="74" height="50" fill="url(#paint1_linear_2490_16669)" fill-opacity="0.1"/>
<path d="M27.1667 44.3333V41.0667C27.1667 40.4056 27.337 39.7977 27.6777 39.2432C28.0184 38.6886 28.4702 38.2659 29.0334 37.975C30.2389 37.3722 31.4639 36.9199 32.7084 36.6182C33.9528 36.3164 35.2167 36.1659 36.5 36.1667C37.7834 36.1667 39.0472 36.3176 40.2917 36.6193C41.5361 36.9211 42.7611 37.373 43.9667 37.975C44.5306 38.2667 44.9829 38.6898 45.3235 39.2443C45.6642 39.7989 45.8341 40.4063 45.8334 41.0667V44.3333H27.1667ZM48.1667 44.3333V40.8333C48.1667 39.9778 47.9283 39.1561 47.4515 38.3682C46.9747 37.5803 46.2992 36.9048 45.425 36.3417C46.4167 36.4583 47.35 36.6578 48.225 36.9402C49.1 37.2225 49.9167 37.5674 50.675 37.975C51.375 38.3639 51.9097 38.7963 52.2792 39.2723C52.6486 39.7483 52.8334 40.2687 52.8334 40.8333V44.3333H48.1667ZM36.5 35C35.2167 35 34.1181 34.5431 33.2042 33.6292C32.2903 32.7153 31.8334 31.6167 31.8334 30.3333C31.8334 29.05 32.2903 27.9514 33.2042 27.0375C34.1181 26.1236 35.2167 25.6667 36.5 25.6667C37.7834 25.6667 38.882 26.1236 39.7959 27.0375C40.7097 27.9514 41.1667 29.05 41.1667 30.3333C41.1667 31.6167 40.7097 32.7153 39.7959 33.6292C38.882 34.5431 37.7834 35 36.5 35ZM48.1667 30.3333C48.1667 31.6167 47.7097 32.7153 46.7959 33.6292C45.882 34.5431 44.7834 35 43.5 35C43.2861 35 43.0139 34.9755 42.6834 34.9265C42.3528 34.8775 42.0806 34.8242 41.8667 34.7667C42.3917 34.1444 42.7954 33.4542 43.0777 32.6958C43.36 31.9375 43.5008 31.15 43.5 30.3333C43.5 29.5167 43.3592 28.7292 43.0777 27.9708C42.7961 27.2125 42.3925 26.5222 41.8667 25.9C42.1389 25.8028 42.4111 25.7394 42.6834 25.7098C42.9556 25.6803 43.2278 25.6659 43.5 25.6667C44.7834 25.6667 45.882 26.1236 46.7959 27.0375C47.7097 27.9514 48.1667 29.05 48.1667 30.3333Z" fill="white" fill-opacity="0.85"/>
<rect y="66" width="8" height="8" fill="white" fill-opacity="0.65"/>
<rect y="14" width="1" height="40" fill="white" fill-opacity="0.35"/>
<defs>
<linearGradient id="paint0_linear_2490_16669" x1="92.9375" y1="47.25" x2="51.2857" y2="93.6891" gradientUnits="userSpaceOnUse">
<stop stop-color="white"/>
<stop offset="1" stop-color="white" stop-opacity="0"/>
</linearGradient>
<linearGradient id="paint1_linear_2490_16669" x1="17.662" y1="12.5325" x2="27.8474" y2="64.8401" gradientUnits="userSpaceOnUse">
<stop stop-color="white"/>
<stop offset="1" stop-color="white" stop-opacity="0"/>
</linearGradient>
</defs>
</svg>
