<svg width="26" height="20" viewBox="0 0 26 20" fill="none" xmlns="http://www.w3.org/2000/svg">
<path d="M0.166656 19.3332V16.0665C0.166656 15.4054 0.33699 14.7976 0.677656 14.243C1.01832 13.6885 1.47021 13.2658 2.03332 12.9749C3.23888 12.3721 4.46388 11.9198 5.70832 11.618C6.95277 11.3163 8.21666 11.1658 9.49999 11.1665C10.7833 11.1665 12.0472 11.3174 13.2917 11.6192C14.5361 11.921 15.7611 12.3729 16.9667 12.9749C17.5305 13.2665 17.9828 13.6896 18.3235 14.2442C18.6642 14.7988 18.8341 15.4062 18.8333 16.0665V19.3332H0.166656ZM21.1667 19.3332V15.8332C21.1667 14.9776 20.9283 14.1559 20.4515 13.368C19.9747 12.5801 19.2992 11.9046 18.425 11.3415C19.4167 11.4582 20.35 11.6577 21.225 11.94C22.1 12.2224 22.9167 12.5673 23.675 12.9749C24.375 13.3638 24.9097 13.7962 25.2792 14.2722C25.6486 14.7482 25.8333 15.2685 25.8333 15.8332V19.3332H21.1667ZM9.49999 9.99987C8.21666 9.99987 7.11805 9.54292 6.20416 8.62903C5.29027 7.71514 4.83332 6.61653 4.83332 5.3332C4.83332 4.04987 5.29027 2.95126 6.20416 2.03737C7.11805 1.12348 8.21666 0.666534 9.49999 0.666534C10.7833 0.666534 11.8819 1.12348 12.7958 2.03737C13.7097 2.95126 14.1667 4.04987 14.1667 5.3332C14.1667 6.61653 13.7097 7.71514 12.7958 8.62903C11.8819 9.54292 10.7833 9.99987 9.49999 9.99987ZM21.1667 5.3332C21.1667 6.61653 20.7097 7.71514 19.7958 8.62903C18.8819 9.54292 17.7833 9.99987 16.5 9.99987C16.2861 9.99987 16.0139 9.97537 15.6833 9.92637C15.3528 9.87737 15.0805 9.82409 14.8667 9.76653C15.3917 9.14431 15.7953 8.45403 16.0777 7.6957C16.36 6.93737 16.5008 6.14987 16.5 5.3332C16.5 4.51653 16.3592 3.72903 16.0777 2.9707C15.7961 2.21237 15.3924 1.52209 14.8667 0.899867C15.1389 0.802645 15.4111 0.739256 15.6833 0.709701C15.9555 0.680145 16.2278 0.665756 16.5 0.666534C17.7833 0.666534 18.8819 1.12348 19.7958 2.03737C20.7097 2.95126 21.1667 4.04987 21.1667 5.3332Z" fill="white"/>
</svg>
