<svg width="87" height="74" viewBox="0 0 87 74" fill="none" xmlns="http://www.w3.org/2000/svg">
<rect x="5.5" y="0.5" width="69" height="69" stroke="url(#paint0_linear_2490_16695)" stroke-opacity="0.65"/>
<rect x="13" y="10" width="74" height="50" fill="url(#paint1_linear_2490_16695)" fill-opacity="0.1"/>
<path d="M33 46.6667C32.3584 46.6667 31.8089 46.438 31.3515 45.9807C30.8942 45.5233 30.6659 44.9742 30.6667 44.3333V25.6667C30.6667 25.025 30.8954 24.4755 31.3527 24.0182C31.81 23.5608 32.3591 23.3326 33 23.3333H41.3709C41.682 23.3333 41.9787 23.3917 42.261 23.5083C42.5434 23.625 42.7911 23.7903 43.0042 24.0042L48.6625 29.6625C48.8764 29.8764 49.0417 30.1245 49.1584 30.4068C49.275 30.6892 49.3334 30.9855 49.3334 31.2958V33.95L40 43.2542V46.6667H33ZM42.9167 46.6667C42.7611 46.6667 42.625 46.6083 42.5084 46.4917C42.3917 46.375 42.3334 46.2389 42.3334 46.0833V44.6833C42.3334 44.5278 42.3676 44.3722 42.436 44.2167C42.5045 44.0611 42.5869 43.9347 42.6834 43.8375L48.3417 38.15L50.85 40.6L45.1625 46.3167C45.0653 46.4333 44.9389 46.5208 44.7834 46.5792C44.6278 46.6375 44.4722 46.6667 44.3167 46.6667H42.9167ZM51.6959 39.7833L49.2167 37.3042L50.0334 36.4875C50.2667 36.2542 50.5486 36.1375 50.8792 36.1375C51.2097 36.1375 51.482 36.2542 51.6959 36.4875L52.5125 37.3333C52.7264 37.5667 52.8334 37.844 52.8334 38.1652C52.8334 38.4864 52.7264 38.7536 52.5125 38.9667L51.6959 39.7833ZM42.3334 31.5H47L41.1667 25.6667V30.3333C41.1667 30.6639 41.2787 30.9412 41.5027 31.1652C41.7267 31.3892 42.0036 31.5008 42.3334 31.5Z" fill="white" fill-opacity="0.85"/>
<rect y="66" width="8" height="8" fill="white" fill-opacity="0.65"/>
<rect y="14" width="1" height="40" fill="white" fill-opacity="0.35"/>
<defs>
<linearGradient id="paint0_linear_2490_16695" x1="92.9375" y1="47.25" x2="51.2857" y2="93.6891" gradientUnits="userSpaceOnUse">
<stop stop-color="white"/>
<stop offset="1" stop-color="white" stop-opacity="0"/>
</linearGradient>
<linearGradient id="paint1_linear_2490_16695" x1="17.662" y1="12.5325" x2="27.8474" y2="64.8401" gradientUnits="userSpaceOnUse">
<stop stop-color="white"/>
<stop offset="1" stop-color="white" stop-opacity="0"/>
</linearGradient>
</defs>
</svg>
