<svg width="88" height="74" viewBox="0 0 88 74" fill="none" xmlns="http://www.w3.org/2000/svg">
<rect x="6" y="0.500244" width="69" height="69" stroke="url(#paint0_linear_2490_18144)" stroke-opacity="0.65"/>
<rect x="13.5" y="10.0002" width="74" height="50" fill="url(#paint1_linear_2490_18144)"/>
<path d="M33.5 46.6668C32.8584 46.6668 32.3089 46.4382 31.8515 45.9808C31.3942 45.5235 31.1659 44.9744 31.1667 44.3335V25.6668C31.1667 25.0252 31.3954 24.4757 31.8527 24.0183C32.31 23.561 32.8591 23.3327 33.5 23.3335H41.8709C42.182 23.3335 42.4787 23.3918 42.761 23.5085C43.0434 23.6252 43.2911 23.7904 43.5042 24.0043L49.1625 29.6627C49.3764 29.8766 49.5417 30.1247 49.6584 30.407C49.775 30.6893 49.8334 30.9857 49.8334 31.296V33.9502L40.5 43.2543V46.6668H33.5ZM43.4167 46.6668C43.2611 46.6668 43.125 46.6085 43.0084 46.4918C42.8917 46.3752 42.8334 46.2391 42.8334 46.0835V44.6835C42.8334 44.5279 42.8676 44.3724 42.936 44.2168C43.0045 44.0613 43.0869 43.9349 43.1834 43.8377L48.8417 38.1502L51.35 40.6002L45.6625 46.3168C45.5653 46.4335 45.4389 46.521 45.2834 46.5793C45.1278 46.6377 44.9722 46.6668 44.8167 46.6668H43.4167ZM52.1959 39.7835L49.7167 37.3043L50.5334 36.4877C50.7667 36.2543 51.0486 36.1377 51.3792 36.1377C51.7097 36.1377 51.982 36.2543 52.1959 36.4877L53.0125 37.3335C53.2264 37.5668 53.3334 37.8441 53.3334 38.1653C53.3334 38.4866 53.2264 38.7537 53.0125 38.9668L52.1959 39.7835ZM42.8334 31.5002H47.5L41.6667 25.6668V30.3335C41.6667 30.6641 41.7787 30.9413 42.0027 31.1653C42.2267 31.3893 42.5036 31.5009 42.8334 31.5002Z" fill="black"/>
<rect x="0.5" y="66.0002" width="8" height="8" fill="white" fill-opacity="0.65"/>
<rect x="0.5" y="14.0002" width="1" height="40" fill="white" fill-opacity="0.35"/>
<defs>
<linearGradient id="paint0_linear_2490_18144" x1="93.4375" y1="47.2502" x2="51.7857" y2="93.6894" gradientUnits="userSpaceOnUse">
<stop stop-color="white"/>
<stop offset="1" stop-color="white" stop-opacity="0"/>
</linearGradient>
<linearGradient id="paint1_linear_2490_18144" x1="13.5" y1="35.0002" x2="100.308" y2="35.0002" gradientUnits="userSpaceOnUse">
<stop stop-color="white"/>
<stop offset="0.554897" stop-color="white"/>
<stop offset="0.675518" stop-color="white" stop-opacity="0.77"/>
<stop offset="1" stop-color="white" stop-opacity="0"/>
</linearGradient>
</defs>
</svg>
