<svg width="20" height="20" viewBox="0 0 20 20" fill="none" xmlns="http://www.w3.org/2000/svg">
<path d="M17.5 5.83333V15.8333C17.5 16.2917 17.3367 16.6842 17.01 17.0108C16.6833 17.3375 16.2911 17.5006 15.8333 17.5H4.16667C3.70833 17.5 3.31583 17.3367 2.98917 17.01C2.6625 16.6833 2.49945 16.2911 2.5 15.8333V4.16667C2.5 3.70833 2.66333 3.31583 2.99 2.98917C3.31667 2.6625 3.70889 2.49945 4.16667 2.5H14.1667L17.5 5.83333ZM10 15C10.6944 15 11.2847 14.7569 11.7708 14.2708C12.2569 13.7847 12.5 13.1944 12.5 12.5C12.5 11.8056 12.2569 11.2153 11.7708 10.7292C11.2847 10.2431 10.6944 10 10 10C9.30556 10 8.71528 10.2431 8.22917 10.7292C7.74306 11.2153 7.5 11.8056 7.5 12.5C7.5 13.1944 7.74306 13.7847 8.22917 14.2708C8.71528 14.7569 9.30556 15 10 15ZM5 8.33333H12.5V5H5V8.33333Z" fill="white" fill-opacity="0.65"/>
</svg>
