<svg width="18" height="18" viewBox="0 0 18 18" fill="none" xmlns="http://www.w3.org/2000/svg">
<path d="M6.70833 17.3333L6.375 14.6667C6.19444 14.5972 6.02444 14.5139 5.865 14.4167C5.705 14.3194 5.54861 14.2153 5.39583 14.1042L2.91667 15.1458L0.625 11.1875L2.77083 9.5625C2.75694 9.46528 2.75 9.37139 2.75 9.28084V8.71834C2.75 8.62834 2.75694 8.53473 2.77083 8.4375L0.625 6.8125L2.91667 2.85417L5.39583 3.89584C5.54861 3.78473 5.70833 3.68056 5.875 3.58334C6.04167 3.48612 6.20833 3.40278 6.375 3.33334L6.70833 0.666672H11.2917L11.625 3.33334C11.8056 3.40278 11.9758 3.48612 12.1358 3.58334C12.2953 3.68056 12.4514 3.78473 12.6042 3.89584L15.0833 2.85417L17.375 6.8125L15.2292 8.4375C15.2431 8.53473 15.25 8.62834 15.25 8.71834V9.28084C15.25 9.37139 15.2361 9.46528 15.2083 9.5625L17.3542 11.1875L15.0625 15.1458L12.6042 14.1042C12.4514 14.2153 12.2917 14.3194 12.125 14.4167C11.9583 14.5139 11.7917 14.5972 11.625 14.6667L11.2917 17.3333H6.70833ZM9.04167 11.9167C9.84722 11.9167 10.5347 11.6319 11.1042 11.0625C11.6736 10.4931 11.9583 9.80556 11.9583 9C11.9583 8.19445 11.6736 7.50695 11.1042 6.9375C10.5347 6.36806 9.84722 6.08334 9.04167 6.08334C8.22222 6.08334 7.53111 6.36806 6.96833 6.9375C6.40611 7.50695 6.125 8.19445 6.125 9C6.125 9.80556 6.40611 10.4931 6.96833 11.0625C7.53111 11.6319 8.22222 11.9167 9.04167 11.9167Z" fill="white" fill-opacity="0.9"/>
</svg>
