<svg width="12" height="15" viewBox="0 0 12 15" fill="none" xmlns="http://www.w3.org/2000/svg">
<path d="M1.64025 5H10.359L9.83775 13.3438C9.8139 13.7246 9.64581 14.082 9.36769 14.3433C9.08957 14.6045 8.72234 14.75 8.34075 14.75H3.65925C3.27767 14.75 2.91043 14.6045 2.63231 14.3433C2.35419 14.082 2.1861 13.7246 2.16225 13.3438L1.64025 5ZM11.25 2.75V4.25H0.75V2.75H3V2C3 1.60218 3.15804 1.22064 3.43934 0.93934C3.72065 0.658035 4.10218 0.5 4.5 0.5H7.5C7.89783 0.5 8.27936 0.658035 8.56066 0.93934C8.84197 1.22064 9 1.60218 9 2V2.75H11.25ZM4.5 2.75H7.5V2H4.5V2.75Z" fill="white" fill-opacity="0.25"/>
</svg>
