<svg width="18" height="16" viewBox="0 0 18 16" fill="none" xmlns="http://www.w3.org/2000/svg">
<path d="M2.16667 15.5C1.70833 15.5 1.31583 15.3367 0.989168 15.01C0.662501 14.6833 0.499446 14.2911 0.500001 13.8333V3.4375C0.500001 3.24306 0.53139 3.05556 0.594168 2.875C0.656946 2.69445 0.750557 2.52778 0.875001 2.375L1.91667 1.10417C2.06945 0.909727 2.26028 0.760282 2.48917 0.655838C2.71806 0.551393 2.95778 0.499449 3.20833 0.500004H12.7917C13.0417 0.500004 13.2814 0.552227 13.5108 0.656671C13.7403 0.761115 13.9311 0.910282 14.0833 1.10417L15.125 2.375C15.25 2.52778 15.3439 2.69445 15.4067 2.875C15.4694 3.05556 15.5006 3.24306 15.5 3.4375V7.52084C15.2361 7.42362 14.9653 7.34362 14.6875 7.28084C14.4097 7.21806 14.125 7.18723 13.8333 7.18834C13.375 7.18834 12.9339 7.24056 12.51 7.345C12.0861 7.44945 11.6939 7.61223 11.3333 7.83334V4.66667H4.66667V11.3333L8 9.66667L9.20833 10.2708C9.09722 10.5625 9.00695 10.8647 8.9375 11.1775C8.86806 11.4903 8.83333 11.8128 8.83333 12.145C8.83333 12.77 8.94445 13.3708 9.16667 13.9475C9.38889 14.5242 9.70833 15.0417 10.125 15.5H2.16667ZM13 15.5V13H10.5V11.3333H13V8.83334H14.6667V11.3333H17.1667V13H14.6667V15.5H13ZM2.5 3H13.5L12.7917 2.16667H3.20833L2.5 3Z" fill="white"/>
</svg>
