<svg width="12" height="11" viewBox="0 0 12 11" fill="none" xmlns="http://www.w3.org/2000/svg">
<path d="M10.0367 1.50579C9.92 1.16163 9.59333 0.916626 9.20833 0.916626H2.79167C2.40667 0.916626 2.08583 1.16163 1.96333 1.50579L0.814167 4.81329C0.773333 4.93579 0.75 5.06413 0.75 5.19829V9.37496C0.75 9.85913 1.14083 10.25 1.625 10.25C2.10917 10.25 2.5 9.85913 2.5 9.37496V9.08329H9.5V9.37496C9.5 9.85329 9.89083 10.25 10.375 10.25C10.8533 10.25 11.25 9.85913 11.25 9.37496V5.19829C11.25 5.06996 11.2267 4.93579 11.1858 4.81329L10.0367 1.50579ZM2.79167 7.33329C2.3075 7.33329 1.91667 6.94246 1.91667 6.45829C1.91667 5.97413 2.3075 5.58329 2.79167 5.58329C3.27583 5.58329 3.66667 5.97413 3.66667 6.45829C3.66667 6.94246 3.27583 7.33329 2.79167 7.33329ZM9.20833 7.33329C8.72417 7.33329 8.33333 6.94246 8.33333 6.45829C8.33333 5.97413 8.72417 5.58329 9.20833 5.58329C9.6925 5.58329 10.0833 5.97413 10.0833 6.45829C10.0833 6.94246 9.6925 7.33329 9.20833 7.33329ZM1.91667 4.41663L2.6575 2.18829C2.73917 1.95496 2.96083 1.79163 3.21167 1.79163H8.78833C9.03917 1.79163 9.26083 1.95496 9.3425 2.18829L10.0833 4.41663H1.91667Z" fill="white"/>
</svg>
