<svg width="88" height="74" viewBox="0 0 88 74" fill="none" xmlns="http://www.w3.org/2000/svg">
<rect x="6" y="0.500244" width="69" height="69" stroke="url(#paint0_linear_2490_17741)" stroke-opacity="0.65"/>
<rect x="13.5" y="10.0002" width="74" height="50" fill="url(#paint1_linear_2490_17741)"/>
<path d="M35.9 43.4002V44.8002C35.9 45.1715 35.7525 45.5276 35.4899 45.7901C35.2274 46.0527 34.8713 46.2002 34.5 46.2002C34.1287 46.2002 33.7726 46.0527 33.51 45.7901C33.2475 45.5276 33.1 45.1715 33.1 44.8002V43.4002H35.9ZM49.9 43.4002V44.8002C49.9 45.1715 49.7525 45.5276 49.4899 45.7901C49.2274 46.0527 48.8713 46.2002 48.5 46.2002C48.1287 46.2002 47.7726 46.0527 47.51 45.7901C47.2475 45.5276 47.1 45.1715 47.1 44.8002V43.4002H49.9ZM46.904 25.2002C47.7133 25.2 48.4976 25.4803 49.1235 25.9934C49.7494 26.5065 50.1782 27.2206 50.3368 28.0142L50.6126 29.4002H51.65C51.9037 29.4002 52.1489 29.4921 52.3401 29.6589C52.5313 29.8256 52.6557 30.056 52.6902 30.3074L52.7 30.4502C52.7 30.7039 52.6081 30.9491 52.4413 31.1403C52.2745 31.3315 52.0442 31.4559 51.7928 31.4904L51.65 31.5002H51.0326L51.1894 32.2842C51.6253 32.4117 52.0082 32.6771 52.2805 33.0405C52.5529 33.404 52.7001 33.846 52.7 34.3002V39.9002C52.7 40.4571 52.4787 40.9913 52.0849 41.3851C51.6911 41.7789 51.1569 42.0002 50.6 42.0002H32.4C31.843 42.0002 31.3089 41.7789 30.9151 41.3851C30.5212 40.9913 30.3 40.4571 30.3 39.9002V34.3002C30.2999 33.846 30.4471 33.404 30.7194 33.0405C30.9918 32.6771 31.3746 32.4117 31.8106 32.2842L31.966 31.5002H31.35C31.0715 31.5002 30.8044 31.3896 30.6075 31.1927C30.4106 30.9957 30.3 30.7287 30.3 30.4502C30.3 30.1717 30.4106 29.9046 30.6075 29.7077C30.8044 29.5108 31.0715 29.4002 31.35 29.4002H32.386L32.6632 28.0142C32.8218 27.2206 33.2506 26.5065 33.8764 25.9934C34.5023 25.4803 35.2867 25.2 36.096 25.2002H46.904ZM35.9 35.7002C35.5287 35.7002 35.1726 35.8477 34.91 36.1102C34.6475 36.3728 34.5 36.7289 34.5 37.1002C34.5 37.4715 34.6475 37.8276 34.91 38.0901C35.1726 38.3527 35.5287 38.5002 35.9 38.5002C36.2713 38.5002 36.6274 38.3527 36.8899 38.0901C37.1525 37.8276 37.3 37.4715 37.3 37.1002C37.3 36.7289 37.1525 36.3728 36.8899 36.1102C36.6274 35.8477 36.2713 35.7002 35.9 35.7002ZM47.1 35.7002C46.7287 35.7002 46.3726 35.8477 46.11 36.1102C45.8475 36.3728 45.7 36.7289 45.7 37.1002C45.7 37.4715 45.8475 37.8276 46.11 38.0901C46.3726 38.3527 46.7287 38.5002 47.1 38.5002C47.4713 38.5002 47.8274 38.3527 48.0899 38.0901C48.3525 37.8276 48.5 37.4715 48.5 37.1002C48.5 36.7289 48.3525 36.3728 48.0899 36.1102C47.8274 35.8477 47.4713 35.7002 47.1 35.7002ZM46.904 26.6002H36.096C35.6105 26.6002 35.1399 26.7684 34.7644 27.0762C34.389 27.384 34.1318 27.8125 34.0366 28.2886L33.2526 32.2002H49.746L48.9634 28.2886C48.8683 27.8127 48.6113 27.3845 48.2361 27.0767C47.8609 26.7689 47.3907 26.6005 46.9054 26.6002H46.904Z" fill="black"/>
<rect x="0.5" y="66.0002" width="8" height="8" fill="white" fill-opacity="0.65"/>
<rect x="0.5" y="14.0002" width="1" height="40" fill="white" fill-opacity="0.35"/>
<defs>
<linearGradient id="paint0_linear_2490_17741" x1="93.4375" y1="47.2502" x2="51.7857" y2="93.6894" gradientUnits="userSpaceOnUse">
<stop stop-color="white"/>
<stop offset="1" stop-color="white" stop-opacity="0"/>
</linearGradient>
<linearGradient id="paint1_linear_2490_17741" x1="13.5" y1="35.0002" x2="100.308" y2="35.0002" gradientUnits="userSpaceOnUse">
<stop stop-color="white"/>
<stop offset="0.554897" stop-color="white"/>
<stop offset="0.675518" stop-color="white" stop-opacity="0.77"/>
<stop offset="1" stop-color="white" stop-opacity="0"/>
</linearGradient>
</defs>
</svg>
