<svg width="87" height="74" viewBox="0 0 87 74" fill="none" xmlns="http://www.w3.org/2000/svg">
<rect x="5.5" y="0.5" width="69" height="69" stroke="url(#paint0_linear_2490_16682)" stroke-opacity="0.65"/>
<rect x="13" y="10" width="74" height="50" fill="url(#paint1_linear_2490_16682)" fill-opacity="0.1"/>
<path d="M34.4 43.4V44.8C34.4 45.1713 34.2525 45.5274 33.9899 45.79C33.7274 46.0525 33.3713 46.2 33 46.2C32.6287 46.2 32.2726 46.0525 32.01 45.79C31.7475 45.5274 31.6 45.1713 31.6 44.8V43.4H34.4ZM48.4 43.4V44.8C48.4 45.1713 48.2525 45.5274 47.9899 45.79C47.7274 46.0525 47.3713 46.2 47 46.2C46.6287 46.2 46.2726 46.0525 46.01 45.79C45.7475 45.5274 45.6 45.1713 45.6 44.8V43.4H48.4ZM45.404 25.2C46.2133 25.1999 46.9976 25.4802 47.6235 25.9932C48.2494 26.5063 48.6782 27.2204 48.8368 28.014L49.1126 29.4H50.15C50.4037 29.4 50.6489 29.4919 50.8401 29.6587C51.0313 29.8255 51.1557 30.0558 51.1902 30.3072L51.2 30.45C51.2 30.7037 51.1081 30.9489 50.9413 31.1401C50.7745 31.3313 50.5442 31.4557 50.2928 31.4902L50.15 31.5H49.5326L49.6894 32.284C50.1253 32.4115 50.5082 32.6769 50.7805 33.0404C51.0529 33.4038 51.2001 33.8458 51.2 34.3V39.9C51.2 40.457 50.9787 40.9911 50.5849 41.3849C50.1911 41.7788 49.6569 42 49.1 42H30.9C30.343 42 29.8089 41.7788 29.4151 41.3849C29.0212 40.9911 28.8 40.457 28.8 39.9V34.3C28.7999 33.8458 28.9471 33.4038 29.2194 33.0404C29.4918 32.6769 29.8746 32.4115 30.3106 32.284L30.466 31.5H29.85C29.5715 31.5 29.3044 31.3894 29.1075 31.1925C28.9106 30.9956 28.8 30.7285 28.8 30.45C28.8 30.1715 28.9106 29.9045 29.1075 29.7076C29.3044 29.5106 29.5715 29.4 29.85 29.4H30.886L31.1632 28.014C31.3218 27.2204 31.7506 26.5063 32.3764 25.9932C33.0023 25.4802 33.7867 25.1999 34.596 25.2H45.404ZM34.4 35.7C34.0287 35.7 33.6726 35.8475 33.41 36.1101C33.1475 36.3726 33 36.7287 33 37.1C33 37.4713 33.1475 37.8274 33.41 38.09C33.6726 38.3525 34.0287 38.5 34.4 38.5C34.7713 38.5 35.1274 38.3525 35.3899 38.09C35.6525 37.8274 35.8 37.4713 35.8 37.1C35.8 36.7287 35.6525 36.3726 35.3899 36.1101C35.1274 35.8475 34.7713 35.7 34.4 35.7ZM45.6 35.7C45.2287 35.7 44.8726 35.8475 44.61 36.1101C44.3475 36.3726 44.2 36.7287 44.2 37.1C44.2 37.4713 44.3475 37.8274 44.61 38.09C44.8726 38.3525 45.2287 38.5 45.6 38.5C45.9713 38.5 46.3274 38.3525 46.5899 38.09C46.8525 37.8274 47 37.4713 47 37.1C47 36.7287 46.8525 36.3726 46.5899 36.1101C46.3274 35.8475 45.9713 35.7 45.6 35.7ZM45.404 26.6H34.596C34.1105 26.6 33.6399 26.7682 33.2644 27.076C32.889 27.3839 32.6318 27.8123 32.5366 28.2884L31.7526 32.2H48.246L47.4634 28.2884C47.3683 27.8125 47.1113 27.3843 46.7361 27.0765C46.3609 26.7687 45.8907 26.6003 45.4054 26.6H45.404Z" fill="white" fill-opacity="0.85"/>
<rect y="66" width="8" height="8" fill="white" fill-opacity="0.65"/>
<rect y="14" width="1" height="40" fill="white" fill-opacity="0.35"/>
<defs>
<linearGradient id="paint0_linear_2490_16682" x1="92.9375" y1="47.25" x2="51.2857" y2="93.6891" gradientUnits="userSpaceOnUse">
<stop stop-color="white"/>
<stop offset="1" stop-color="white" stop-opacity="0"/>
</linearGradient>
<linearGradient id="paint1_linear_2490_16682" x1="17.662" y1="12.5325" x2="27.8474" y2="64.8401" gradientUnits="userSpaceOnUse">
<stop stop-color="white"/>
<stop offset="1" stop-color="white" stop-opacity="0"/>
</linearGradient>
</defs>
</svg>
