<svg width="22" height="28" viewBox="0 0 22 28" fill="none" xmlns="http://www.w3.org/2000/svg">
<path d="M20.4083 3.125H14.4083C14.1685 2.41215 13.7109 1.79257 13.1002 1.35366C12.4894 0.914743 11.7563 0.678635 11.0042 0.678635C10.252 0.678635 9.51891 0.914743 8.90815 1.35366C8.29739 1.79257 7.83982 2.41215 7.59999 3.125H1.83332C1.62924 3.09548 1.42122 3.10958 1.22299 3.16636C1.02476 3.22314 0.840823 3.32132 0.68332 3.45441C0.525818 3.5875 0.39833 3.75248 0.30927 3.93846C0.22021 4.12444 0.171603 4.32719 0.166656 4.53333V25.8833C0.167748 26.0694 0.205472 26.2534 0.277677 26.4248C0.349881 26.5963 0.45515 26.7519 0.587474 26.8826C0.719798 27.0134 0.876585 27.1168 1.04888 27.187C1.22118 27.2572 1.40562 27.2928 1.59166 27.2917H20.4083C20.5944 27.2928 20.7788 27.2572 20.9511 27.187C21.1234 27.1168 21.2802 27.0134 21.4125 26.8826C21.5448 26.7519 21.6501 26.5963 21.7223 26.4248C21.7945 26.2534 21.8322 26.0694 21.8333 25.8833V4.53333C21.8322 4.34729 21.7945 4.16329 21.7223 3.99183C21.6501 3.82037 21.5448 3.66481 21.4125 3.53403C21.2802 3.40325 21.1234 3.29982 20.9511 3.22964C20.7788 3.15946 20.5944 3.1239 20.4083 3.125ZM5.40832 5.625C5.40832 5.40399 5.49612 5.19202 5.6524 5.03574C5.80868 4.87946 6.02064 4.79167 6.24166 4.79167H9.10832V4.26667C9.10832 3.75502 9.31157 3.26433 9.67336 2.90254C10.0352 2.54075 10.5258 2.3375 11.0375 2.3375C11.5491 2.3375 12.0398 2.54075 12.4016 2.90254C12.7634 3.26433 12.9667 3.75502 12.9667 4.26667V4.83333H15.8333C16.0543 4.83333 16.2663 4.92113 16.4226 5.07741C16.5789 5.23369 16.6667 5.44565 16.6667 5.66667V7.16667H5.37499L5.40832 5.625ZM17.5083 13.3167L9.90832 20.9167L5.54166 16.55C5.32064 16.329 5.19648 16.0292 5.19648 15.7167C5.19648 15.4041 5.32064 15.1043 5.54166 14.8833C5.76267 14.6623 6.06243 14.5382 6.37499 14.5382C6.68755 14.5382 6.98731 14.6623 7.20832 14.8833L9.92499 17.6L15.875 11.65C16.096 11.429 16.3958 11.3048 16.7083 11.3048C17.0209 11.3048 17.3206 11.429 17.5417 11.65C17.7627 11.871 17.8868 12.1708 17.8868 12.4833C17.8868 12.7959 17.7627 13.0957 17.5417 13.3167H17.5083Z" fill="white"/>
</svg>
